<svg viewBox="0 0 270 30" fill="none" xmlns="http://www.w3.org/2000/svg">
<path fill-rule="evenodd" clip-rule="evenodd" d="M0 10.4404C0 9.7802 0.0400836 9.3305 0.119493 9.09028C0.199918 8.83001 0.419628 8.56974 0.779127 8.31073C1.33829 7.88947 2.16816 7.56064 3.26746 7.32042C4.18613 7.12033 5.05507 7.01978 5.87428 7.01978C7.83313 7.01978 9.38175 7.59009 10.5214 8.72971C11.18 8.07052 11.9695 7.61015 12.8892 7.34988C13.6483 7.12998 14.5269 7.01978 15.5267 7.01978C17.085 7.01978 18.2741 7.34988 19.0936 8.01008C20.0734 8.78989 20.5628 10.1199 20.5628 12V22.32C20.5628 22.741 20.3631 22.9505 19.9623 22.9505H17.4749C17.0553 22.9505 16.846 22.7304 16.846 22.2903V12.4804C16.846 11.5196 16.7455 10.8203 16.5459 10.3802C16.1864 9.63952 15.496 9.27031 14.4772 9.27031C13.8175 9.27031 13.2581 9.47015 12.7984 9.87009C12.3597 10.25 12.1398 10.9599 12.1398 12V22.2903C12.1398 22.7304 11.9401 22.9505 11.5405 22.9505H9.14174C8.66199 22.9505 8.423 22.741 8.423 22.32V12.3004C8.423 10.2202 7.64286 9.18043 6.08485 9.18043C5.40493 9.18043 4.8554 9.38026 4.43552 9.7802C3.95678 10.2202 3.71677 10.9599 3.71677 12V22.2903C3.71677 22.7304 3.49706 22.9505 3.05714 22.9505H0.65963C0.21996 22.9505 0 22.741 0 22.32V10.4404Z" fill="#ffffff"/>
<path fill-rule="evenodd" clip-rule="evenodd" d="M31.9224 8.03979C31.9224 7.62081 32.1327 7.41031 32.5526 7.41031H34.9204C35.4004 7.41031 35.6402 7.62081 35.6402 8.03979V19.2305C35.6402 20.0304 35.5894 20.59 35.4902 20.9108C35.3307 21.41 34.9902 21.83 34.4711 22.1707C33.2723 22.9505 31.5428 23.3398 29.2849 23.3398C26.7478 23.3398 24.9995 22.7601 24.0395 21.6004C23.4403 20.881 23.1401 19.8303 23.1401 18.4497V7.98063C23.1401 7.59974 23.3505 7.41031 23.7701 7.41031H26.2277C26.6676 7.41031 26.8874 7.61015 26.8874 8.01008V18.0604C26.8874 19.9202 27.7563 20.8503 29.4952 20.8503C30.5547 20.8503 31.2638 20.57 31.6233 20.0103C31.8232 19.6706 31.9224 19.1406 31.9224 18.421V8.03979Z" fill="#ffffff"/>
<path fill-rule="evenodd" clip-rule="evenodd" d="M40.3053 14.8757C39.1329 13.9519 38.5473 12.8029 38.5473 11.4307C38.5473 10.2299 38.9373 9.2302 39.7164 8.43008C40.6551 7.49055 42.0041 7.01978 43.763 7.01978C45.4014 7.01978 46.6806 7.39965 47.5993 8.16041C48.3594 8.79954 48.7387 9.49047 48.7387 10.2299C48.7387 10.6499 48.5981 11.0001 48.319 11.2804C48.059 11.561 47.7198 11.6994 47.3002 11.6994C46.6606 11.6994 46.1108 11.29 45.6511 10.4701C45.112 9.49047 44.4323 9.00039 43.6128 9.00039C43.0536 9.00039 42.614 9.18982 42.2935 9.56969C41.9744 9.95058 41.8148 10.3602 41.8148 10.8002C41.8148 11.4604 42.0842 12.0107 42.6234 12.4497C42.8834 12.6696 43.4025 12.9606 44.1826 13.3204L45.6805 14.0103C46.2153 14.2549 46.6877 14.523 47.1007 14.814L47.101 14.8143C47.1289 14.8338 47.1566 14.8536 47.1837 14.8734H47.1812C48.487 15.8526 49.2177 17.1438 49.2177 18.6305C49.2177 19.7902 48.8785 20.7805 48.1985 21.6004C47.2598 22.7601 45.801 23.3398 43.8231 23.3398C41.9838 23.3398 40.5356 22.8807 39.4764 21.9602C38.6572 21.2609 38.2469 20.5106 38.2469 19.711C38.2469 19.2506 38.3875 18.8707 38.6666 18.5703C38.967 18.2506 39.3358 18.0909 39.7768 18.0909C40.336 18.0909 40.8951 18.4804 41.4553 19.2602C41.914 19.9001 42.2641 20.3298 42.5039 20.5509C42.9037 20.8904 43.3731 21.0608 43.9132 21.0608C44.4523 21.0608 44.9016 20.8904 45.2619 20.5509C45.6214 20.1901 45.801 19.7404 45.801 19.1998C45.801 18.5406 45.4808 17.9208 44.8412 17.3398C44.5421 17.1209 43.543 16.6108 41.8445 15.8099C41.2513 15.5296 40.7386 15.2175 40.3053 14.8757Z" fill="#ffffff"/>
<path fill-rule="evenodd" clip-rule="evenodd" d="M51.3351 14.8808L51.259 14.8757C51.3044 12.2539 52.0231 10.2426 53.4145 8.85032C54.6142 7.63021 56.1322 7.01978 57.9705 7.01978C60.0085 7.01978 61.5571 7.78054 62.6163 9.29977C63.3764 10.3802 63.756 11.5005 63.756 12.6602C63.756 13.3605 63.4061 13.7605 62.7064 13.86L54.4039 15.0905C54.8035 18.3905 56.1819 20.0408 58.5403 20.0408C59.9387 20.0408 61.1281 19.3809 62.1069 18.0604C62.5265 17.4805 62.867 17.1905 63.126 17.1905C63.6461 17.1905 63.9052 17.5005 63.9052 18.1206C63.9052 19.001 63.5056 19.97 62.7064 21.0301C61.5678 22.5707 59.9885 23.3398 57.9705 23.3398C55.9525 23.3398 54.3435 22.6405 53.1448 21.2409C51.8859 19.7805 51.257 17.7504 51.257 15.1497C51.257 15.0598 51.257 14.9699 51.259 14.881L51.3351 14.8808ZM54.2537 13.2305L60.0085 12.3004C59.9494 11.3799 59.6693 10.6298 59.1693 10.0501C58.6702 9.53059 58.0803 9.27031 57.4017 9.27031C56.4219 9.27031 55.6618 9.67025 55.1227 10.4701C54.6236 11.1704 54.3341 12.0899 54.2537 13.2305Z" fill="#ffffff"/>
<path fill-rule="evenodd" clip-rule="evenodd" d="M74.9952 8.03979C74.9952 7.62081 75.2055 7.41031 75.6251 7.41031H77.9932C78.4729 7.41031 78.7129 7.62081 78.7129 8.03979V19.2305C78.7129 20.0304 78.6632 20.59 78.563 20.9108C78.4034 21.41 78.0629 21.83 77.5439 22.1707C76.3451 22.9505 74.6156 23.3398 72.3576 23.3398C69.8206 23.3398 68.0723 22.7601 67.1123 21.6004C66.513 20.881 66.2126 19.8303 66.2126 18.4497V7.98063C66.2126 7.59974 66.4232 7.41031 66.8429 7.41031H69.3005C69.7404 7.41031 69.9601 7.61015 69.9601 8.01008V18.0604C69.9601 19.9202 70.8291 20.8503 72.568 20.8503C73.6272 20.8503 74.3365 20.57 74.696 20.0103C74.896 19.6706 74.9952 19.1406 74.9952 18.421V8.03979Z" fill="#ffffff"/>
<path fill-rule="evenodd" clip-rule="evenodd" d="M99.2017 21.5359C98.9756 21.3069 98.6983 21.0011 98.5136 20.7604C97.3552 19.2399 96.7758 17.3906 96.7758 15.2101C96.7758 14.5405 96.8306 13.9006 96.9391 13.291V13.2907C96.9523 13.2173 96.9663 13.1442 96.981 13.0718H96.9863C97.2715 11.8167 97.8238 10.5158 98.574 9.53997C99.873 7.88006 101.561 7.04947 103.639 7.04947C105.798 7.04947 107.516 7.94989 108.795 9.75047C109.46 10.6984 109.964 11.9213 110.239 13.0718H110.243C110.258 13.1391 110.272 13.2069 110.285 13.275V13.2755C110.398 13.8552 110.461 14.461 110.474 15.0905C110.514 17.2509 109.944 19.1206 108.765 20.7C108.571 20.961 108.275 21.2883 108.034 21.5359H108.039C107.997 21.5783 107.954 21.62 107.911 21.6608C106.749 22.7624 105.335 23.3101 103.669 23.3101C101.944 23.3101 100.492 22.754 99.3138 21.6476C99.2747 21.6108 99.2359 21.5737 99.1976 21.5359H99.2017ZM107.459 13.2836C107.232 12.1559 106.792 11.0084 106.217 10.2606C105.458 9.24059 104.538 8.72969 103.46 8.72969C102.28 8.72969 101.331 9.29036 100.612 10.4097C100.151 11.1491 99.8047 12.3019 99.6485 13.3364C99.5914 13.7932 99.5635 14.2775 99.5635 14.7899C99.5635 16.8096 100.003 18.4497 100.882 19.7109C101.682 20.8904 102.65 21.4798 103.79 21.4798C104.948 21.4798 105.888 20.9001 106.607 19.7404C107.367 18.5005 107.706 16.8797 107.626 14.88C107.603 14.3125 107.547 13.7803 107.459 13.2836Z" fill="#ffffff"/>
<path fill-rule="evenodd" clip-rule="evenodd" d="M112.632 9.89978C112.632 9.02069 112.892 8.41965 113.411 8.09996C114.59 7.39963 116.179 7.04947 118.178 7.04947C120.236 7.04947 121.265 7.6302 121.265 8.78987C121.265 9.1507 121.145 9.45973 120.905 9.72C120.685 9.96021 120.396 10.0806 120.036 10.0806C119.696 10.0806 119.287 9.8203 118.807 9.29975C118.328 8.78048 117.768 8.5202 117.128 8.5202C115.909 8.5202 115.299 9.22053 115.299 10.6204V22.4406C115.299 22.7801 115.12 22.9505 114.76 22.9505H113.232C112.832 22.9505 112.632 22.7801 112.632 22.4406V9.89978Z" fill="#ffffff"/>
<path fill-rule="evenodd" clip-rule="evenodd" d="M145.394 11.8497C145.394 10.9302 145.304 10.2499 145.124 9.80989C144.785 9.03009 144.124 8.63955 143.147 8.63955C141.967 8.63955 141.128 9.29036 140.629 10.5907C140.288 11.4497 139.839 11.8804 139.279 11.8804C138.999 11.8804 138.75 11.7905 138.53 11.6107C138.23 11.3705 138.08 11.0404 138.08 10.6204C138.08 9.6809 138.6 8.85031 139.639 8.13068C140.678 7.4103 141.977 7.04947 143.535 7.04947C145.454 7.04947 146.753 7.64924 147.432 8.85031C147.812 9.53057 148.002 10.5303 148.002 11.8497V19.7998C148.002 20.5001 147.932 21.0207 147.793 21.3602C147.769 21.4173 147.744 21.4745 147.717 21.5296V21.5359C147.519 21.9148 147.185 22.2375 146.713 22.4998C145.694 23.0404 144.285 23.3101 142.487 23.3101C141.348 23.3101 140.368 23.1399 139.549 22.8002C138.834 22.4935 138.285 22.0722 137.902 21.5359L137.892 21.5214C137.458 20.9072 137.242 20.1439 137.242 19.2305C137.242 17.6699 138.001 16.4404 139.52 15.5402C140.478 14.9603 142.437 14.2399 145.394 13.3806V11.8497ZM144.147 21.5306C144.978 21.2358 145.394 20.5603 145.394 19.5002V14.7899C143.396 15.43 142.087 15.9506 141.468 16.3505C140.468 16.9706 139.969 17.8002 139.969 18.84C139.969 19.3996 140.099 19.9001 140.358 20.3404C140.689 20.9361 141.19 21.3343 141.862 21.5359H141.869C142.211 21.6395 142.596 21.6903 143.026 21.6903C143.452 21.6903 143.82 21.6375 144.132 21.5306H144.147Z" fill="#ffffff"/>
<path fill-rule="evenodd" clip-rule="evenodd" d="M178.815 20.4905C179.914 21.1497 180.914 21.4798 181.812 21.4798C183.091 21.4798 184.14 20.9201 184.96 19.7998C185.839 18.601 186.278 16.9906 186.278 14.9699C186.278 14.2907 186.221 13.6579 186.106 13.0718L186.097 13.0241C185.896 12.0254 185.527 11.1643 184.99 10.4404C184.131 9.27969 182.941 8.69998 181.422 8.69998C180.284 8.69998 179.525 9.01003 179.145 9.63011C178.925 9.98967 178.815 10.58 178.815 11.4V20.4905ZM176.147 11.3101C176.147 10.1103 176.267 9.33048 176.508 8.96991C176.827 8.47043 177.516 8.03038 178.575 7.64924C179.655 7.24956 180.813 7.04947 182.052 7.04947C184.55 7.04947 186.409 7.88006 187.627 9.53997C188.338 10.5229 188.78 11.7001 188.952 13.0718H188.953C189.009 13.5172 189.036 13.9786 189.036 14.4598C189.036 16.6605 188.487 18.601 187.387 20.28C187.073 20.7584 186.731 21.1794 186.364 21.5423H186.358C185.188 22.7029 183.753 23.2796 182.052 23.2796C180.914 23.2796 179.835 22.9305 178.815 22.2312V29.4604C178.815 29.8202 178.645 30 178.306 30H176.807C176.367 30 176.147 29.8096 176.147 29.4299V11.3101Z" fill="#ffffff"/>
<path fill-rule="evenodd" clip-rule="evenodd" d="M190.565 7.98063C190.565 7.59974 190.735 7.41031 191.075 7.41031H192.634C192.854 7.41031 193.003 7.43976 193.083 7.5002C193.183 7.56063 193.233 7.72035 193.233 7.98063V22.4109C193.233 22.7705 193.033 22.9505 192.634 22.9505H191.014C190.715 22.9505 190.565 22.7708 190.565 22.4109V7.98063Z" fill="#ffffff"/>
<path fill-rule="evenodd" clip-rule="evenodd" d="M196.5 21.0281V10.2901C196.5 9.71035 196.571 9.2703 196.71 8.96991C196.87 8.65021 197.199 8.36023 197.7 8.09996C199.057 7.39963 200.777 7.04947 202.855 7.04947C205.334 7.04947 207.001 7.64924 207.861 8.85031C208.34 9.55063 208.581 10.6001 208.581 12V22.3505C208.581 22.7103 208.459 22.9101 208.221 22.9505H206.572C206.133 22.9505 205.912 22.7504 205.912 22.3505V21.0281V12.2709C205.912 11.1895 205.763 10.4003 205.463 9.89978C204.963 9.04075 203.943 8.61009 202.406 8.61009C200.247 8.61009 199.169 9.50086 199.169 11.2804V22.3505C199.169 22.7504 198.958 22.9505 198.54 22.9505H197.07C196.69 22.9505 196.5 22.7601 196.5 22.3802V21.0281Z" fill="#ffffff"/>
<path fill-rule="evenodd" clip-rule="evenodd" d="M226.186 13.0685C226.348 12.049 226.635 11.1539 227.046 10.3802C228.223 8.16039 230.072 7.04947 232.589 7.04947C234.629 7.04947 236.177 7.79017 237.237 9.2703C237.975 10.2901 238.346 11.3301 238.346 12.3903C238.346 12.6866 238.265 12.9162 238.102 13.0782H238.095C237.95 13.2244 237.745 13.3136 237.476 13.3499L228.304 14.7C228.423 16.7007 228.943 18.2506 229.862 19.3501C230.702 20.3508 231.732 20.8503 232.949 20.8503C234.649 20.8503 236.027 19.9699 237.087 18.2105C237.425 17.6308 237.717 17.3398 237.955 17.3398C238.356 17.3398 238.556 17.58 238.556 18.0604C238.556 18.9004 238.145 19.8707 237.326 20.9699C237.174 21.172 237.016 21.3592 236.849 21.5349V21.5359C235.73 22.7187 234.302 23.3101 232.559 23.3101C230.735 23.3101 229.263 22.7192 228.152 21.5359H228.147C227.703 21.0588 227.315 20.4915 226.985 19.8303C226.346 18.5503 226.026 17.0097 226.026 15.2101C226.026 14.445 226.079 13.7308 226.183 13.0685H226.186ZM235.469 12.1206C235.367 11.1598 235.017 10.3601 234.418 9.72C233.82 9.07985 233.099 8.76042 232.259 8.76042C230.001 8.76042 228.69 10.1992 228.322 13.0759C228.314 13.1295 228.309 13.18 228.304 13.2305L229.329 13.0718L235.469 12.1206Z" fill="#ffffff"/>
<path fill-rule="evenodd" clip-rule="evenodd" d="M241.192 7.98063C241.192 7.59974 241.362 7.41031 241.702 7.41031H243.26C243.481 7.41031 243.63 7.43976 243.709 7.5002C243.811 7.56063 243.861 7.72035 243.861 7.98063V22.4109C243.861 22.7705 243.661 22.9505 243.26 22.9505H241.641C241.342 22.9505 241.192 22.7708 241.192 22.4109V7.98063Z" fill="#ffffff"/>
<path fill-rule="evenodd" clip-rule="evenodd" d="M247.456 9.89978C247.456 9.02069 247.715 8.41965 248.238 8.09996C249.415 7.39963 251.003 7.04947 253.002 7.04947C255.06 7.04947 256.09 7.6302 256.09 8.78987C256.09 9.1507 255.968 9.45973 255.73 9.72C255.511 9.96021 255.22 10.0806 254.859 10.0806C254.522 10.0806 254.111 9.8203 253.631 9.29975C253.152 8.78048 252.594 8.5202 251.952 8.5202C250.734 8.5202 250.125 9.22053 250.125 10.6204V22.4406C250.125 22.7801 249.945 22.9505 249.585 22.9505H248.055C247.657 22.9505 247.456 22.7801 247.456 22.4406V9.89978Z" fill="#ffffff"/>
<path fill-rule="evenodd" clip-rule="evenodd" d="M81.8485 12.31V5.36925V0.699056C81.8485 0.232849 82.0375 0 82.4171 0H83.8865C84.1656 0 84.3465 0.0467222 84.4256 0.140421C84.5061 0.209488 84.5462 0.395616 84.5462 0.699056V9.00038C85.9849 7.70003 87.5432 7.04947 89.2217 7.04947C90.8603 7.04947 92.189 7.67057 93.2081 8.91049C94.0684 9.97901 94.5865 11.3652 94.7608 13.0695V13.0718C94.8055 13.5025 94.8275 13.9562 94.8275 14.4303C94.8275 17.3906 94.0474 19.6599 92.4891 21.2408C92.3877 21.3411 92.2852 21.4387 92.1794 21.5329V21.5359C90.8464 22.7177 89.1605 23.3101 87.1233 23.3101C85.3052 23.3101 83.8558 22.85 82.7776 21.9305C82.6297 21.8035 82.5018 21.6746 82.394 21.5433V21.5359C82.194 21.301 82.0631 21.0501 81.9984 20.7901C81.898 20.4504 81.8485 19.8209 81.8485 18.9004V12.31ZM91.9929 13.0718H91.9924C91.8338 12.2783 91.5801 11.581 91.2302 10.98C90.5115 9.69995 89.4416 9.0598 88.0229 9.0598C86.8242 9.0598 85.6645 9.6098 84.5462 10.7103V18.5099C84.5462 20.5106 85.5049 21.5105 87.4237 21.5105C88.762 21.5105 89.8719 21.0006 90.7502 19.9806C91.71 18.8603 92.189 17.2806 92.189 15.2406C92.189 14.4522 92.1236 13.7292 91.9929 13.0718Z" fill="#ffffff"/>
<path fill-rule="evenodd" clip-rule="evenodd" d="M132.085 0.660206C132.085 0.219899 132.275 0 132.655 0H134.184C134.583 0 134.783 0.199839 134.783 0.599772V19.7701C134.783 20.4905 134.643 21.0501 134.364 21.4501C134.343 21.4788 134.322 21.5072 134.3 21.5349V21.5359C133.828 22.1336 132.999 22.595 131.816 22.9208C130.837 23.1801 129.838 23.3101 128.819 23.3101C126.776 23.3101 125.126 22.7184 123.871 21.5359H123.868C123.799 21.4681 123.73 21.4006 123.662 21.3307C122.404 19.99 121.774 18.1006 121.774 15.6596C121.774 14.7477 121.87 13.8864 122.063 13.0749V13.0718C122.346 11.8761 122.84 10.7885 123.543 9.80989C124.882 7.96995 126.64 7.04947 128.819 7.04947C129.918 7.04947 131.007 7.37958 132.085 8.03978V0.660206ZM132.085 9.72001C131.207 8.98032 130.247 8.6101 129.208 8.6101C127.829 8.6101 126.691 9.20987 125.79 10.4097C125.231 11.1737 124.85 12.0625 124.646 13.0769H124.645C124.53 13.6607 124.472 14.28 124.472 14.9402C124.472 16.98 124.942 18.5904 125.881 19.7701C126.759 20.8904 127.939 21.4501 129.418 21.4501C131.196 21.4501 132.085 20.6599 132.085 19.0802V9.72001Z" fill="#ffffff"/>
<path fill-rule="evenodd" clip-rule="evenodd" d="M151.329 0.480173C151.329 0.159719 151.53 0 151.928 0H153.427C153.807 0 153.997 0.159719 153.997 0.480173V22.4109C153.997 22.7705 153.807 22.9505 153.427 22.9505H151.898C151.638 22.9505 151.479 22.9208 151.418 22.8606C151.359 22.8002 151.329 22.6501 151.329 22.4109V0.480173Z" fill="#ffffff"/>
<path fill-rule="evenodd" clip-rule="evenodd" d="M191.19 4.60748H191.177C191.003 4.52826 190.849 4.4244 190.715 4.29008C190.435 3.98968 190.296 3.61946 190.296 3.18017C190.296 2.72006 190.446 2.34018 190.745 2.03979C191.065 1.74041 191.465 1.59009 191.945 1.59009C192.383 1.59009 192.753 1.72975 193.054 2.01008C193.353 2.29041 193.512 2.65023 193.532 3.09028C193.552 3.53058 193.413 3.91985 193.114 4.26062C192.975 4.40764 192.816 4.52089 192.636 4.60012V4.60748C192.424 4.69331 192.183 4.73978 191.914 4.73978C191.643 4.73978 191.402 4.6961 191.19 4.60748Z" fill="#ffffff"/>
<path fill-rule="evenodd" clip-rule="evenodd" d="M211.519 0.539337C211.519 0.179779 211.697 0 212.057 0H213.645C213.825 0 213.965 0.0294554 214.066 0.0898896C214.165 0.13001 214.216 0.280333 214.216 0.539337V8.9402C215.555 7.67997 217.093 7.04947 218.833 7.04947C222.01 7.04947 223.598 8.78988 223.598 12.2709V22.2312C223.598 22.5305 223.567 22.7304 223.507 22.8299C223.448 22.9104 223.288 22.9505 223.027 22.9505H221.53C221.249 22.9505 221.071 22.9208 220.99 22.8606C220.929 22.7801 220.899 22.6108 220.899 22.3505V12.6305C220.899 11.69 220.769 10.9706 220.51 10.4701C219.97 9.45008 219.082 8.9402 217.841 8.9402C216.644 8.9402 215.434 9.50087 214.216 10.6204V22.2312C214.216 22.7103 214.026 22.9505 213.645 22.9505H212.057C211.697 22.9505 211.519 22.741 211.519 22.32V0.539337Z" fill="#ffffff"/>
<path fill-rule="evenodd" clip-rule="evenodd" d="M241.816 4.60748H241.804C241.631 4.52826 241.476 4.4244 241.342 4.29008C241.063 3.98968 240.923 3.61946 240.923 3.18017C240.923 2.72006 241.073 2.34018 241.372 2.03979C241.692 1.74041 242.09 1.59009 242.572 1.59009C243.011 1.59009 243.379 1.72975 243.681 2.01008C243.98 2.29041 244.14 2.65023 244.161 3.09028C244.181 3.53058 244.039 3.91985 243.739 4.26062C243.602 4.40764 243.443 4.52089 243.262 4.60012L242.413 4.60443L243.262 4.60748C243.052 4.69331 242.811 4.73978 242.542 4.73978C242.271 4.73978 242.029 4.6961 241.816 4.60748Z" fill="#ffffff"/>
<path fill-rule="evenodd" clip-rule="evenodd" d="M159.137 21.5063C158.911 21.2772 158.634 20.9715 158.449 20.7308C157.29 19.2103 156.711 17.3609 156.711 15.1805C156.711 14.5109 156.766 13.871 156.874 13.2613V13.2611C156.888 13.1877 156.901 13.1146 156.916 13.0422H156.922C157.207 11.787 157.759 10.4862 158.509 9.51033C159.808 7.85043 161.497 7.01984 163.575 7.01984C165.733 7.01984 167.451 7.92026 168.73 9.72084C169.395 10.6687 169.899 11.8916 170.174 13.0422H170.179C170.193 13.1095 170.207 13.1773 170.22 13.2453V13.2458C170.334 13.8255 170.397 14.4314 170.409 15.0609C170.449 17.2213 169.879 19.0909 168.701 20.6704C168.506 20.9314 168.21 21.2587 167.97 21.5063H167.974C167.932 21.5487 167.889 21.5903 167.846 21.6312C166.684 22.7327 165.27 23.2804 163.604 23.2804C161.879 23.2804 160.427 22.7244 159.249 21.618C159.21 21.5812 159.171 21.5441 159.133 21.5063H159.137ZM167.394 13.254C167.167 12.1263 166.727 10.9788 166.152 10.231C165.393 9.21096 164.473 8.70006 163.395 8.70006C162.215 8.70006 161.266 9.26073 160.547 10.38C160.086 11.1195 159.74 12.2723 159.584 13.3068C159.527 13.7636 159.499 14.2478 159.499 14.7602C159.499 16.78 159.938 18.4201 160.817 19.6813C161.617 20.8608 162.585 21.4502 163.725 21.4502C164.884 21.4502 165.823 20.8704 166.542 19.7108C167.302 18.4708 167.641 16.85 167.561 14.8504C167.538 14.2829 167.482 13.7506 167.394 13.254Z" fill="#ffffff"/>
<path fill-rule="evenodd" clip-rule="evenodd" d="M258.726 21.5655C258.5 21.3365 258.223 21.0308 258.038 20.79C256.88 19.2695 256.3 17.4202 256.3 15.2398C256.3 14.5702 256.355 13.9303 256.463 13.3206V13.3203C256.477 13.2469 256.491 13.1738 256.505 13.1014H256.511C256.796 11.8463 257.348 10.5454 258.098 9.5696C259.397 7.90969 261.086 7.0791 263.164 7.0791C265.323 7.0791 267.04 7.97952 268.319 9.7801C268.984 10.728 269.488 11.9509 269.763 13.1014H269.768C269.782 13.1687 269.796 13.2365 269.81 13.3046V13.3051C269.923 13.8848 269.986 14.4907 269.998 15.1202C270.038 17.2805 269.468 19.1502 268.29 20.7296C268.095 20.9907 267.799 21.318 267.559 21.5655H267.564C267.521 21.6079 267.478 21.6496 267.435 21.6905C266.273 22.792 264.859 23.3397 263.193 23.3397C261.468 23.3397 260.017 22.7836 258.838 21.6773C258.799 21.6404 258.76 21.6034 258.722 21.5655H258.726ZM266.983 13.3132C266.756 12.1855 266.316 11.0381 265.741 10.2902C264.982 9.27022 264.062 8.75933 262.984 8.75933C261.804 8.75933 260.855 9.31999 260.136 10.4393C259.676 11.1787 259.329 12.3315 259.173 13.366C259.116 13.8228 259.088 14.3071 259.088 14.8195C259.088 16.8392 259.527 18.4793 260.406 19.7406C261.206 20.9201 262.174 21.5094 263.314 21.5094C264.473 21.5094 265.412 20.9297 266.131 19.77C266.891 18.5301 267.23 16.9093 267.15 14.9096C267.127 14.3421 267.071 13.8099 266.983 13.3132Z" fill="#ffffff"/>
</svg>
